{"title":"Doctor Adventures xXx Madison Scott - ERection@Mastiotrrents","uid":6085892,"size":666058805,"categoryP":"porn","categoryS":"movie_clips","magnet":"?xt=urn:btih:8de2e10853e1e5dfea793231e8fda4b1a520a6e7&amp;dn=Doctor+Adventures+xXx+Madison+Scott+-+ERection%40Mastiotrrents&amp;tr=udp%3A%2F%2Ftracker.openbittorrent.com%3A80&amp;tr=udp%3A%2F%2Fopen.demonii.com%3A1337&amp;tr=udp%3A%2F%2Ftracker.coppersurfer.tk%3A6969&amp;tr=udp%3A%2F%2Fexodus.desync.com%3A6969","seeders":0,"leechers":1,"uploader":"amanrulz","files":1,"time":1294325438,"description":"mastitorrents.com\n &lt;a href=&quot;\nhttp://mastitorrents.com/forums/index.php&quot; rel=&quot;nofollow&quot; target=&quot;_NEW&quot;&gt;\nhttp://mastitorrents.com/forums/index.php&lt;/a&gt;\n\nGeneral \nComplete name : Doctor Adventures - Madison Scott - ERection.wmv \nFormat : Windows Media \nFile size : 635 MiB \nDuration : 37mn 5s \nOverall bit rate : 2 394 Kbps \nMaximum Overall bit rate : 2 364 Kbps \nEncoded date : UTC 1970-01-01 00:00:00.000 \n\nVideo \nID : 1 \nFormat : WMV2 \nCodec ID : WMV2 \nCodec ID/Info : Windows Media Video 8 \nDescription of the codec : wmv2 \nDuration : 37mn 5s \nBit rate : 2 226 Kbps \nWidth : 768 pixels \nHeight : 432 pixels \nDisplay aspect ratio : 16:9 \nFrame rate : 29.970 fps \nBit depth : 8 bits \nBits/(Pixel*Frame) : 0.224 \nStream size : 591 MiB (93%) \n\nAudio \nID : 2 \nFormat : WMA \nFormat version : Version 2 \nCodec ID : 161 \nCodec ID/Info : Windows Media Audio \nDescription of the codec : Windows Media Audio V8 \nDuration : 37mn 5s \nBit rate : 64.0 Kbps \nChannel(s) : 2 channels \nSampling rate : 48.0 KHz \nBit depth : 16 bits \nStream size : 17.0 MiB (3%)\n","torrent":{"xt":"urn:btih:8de2e10853e1e5dfea793231e8fda4b1a520a6e7","amp;dn":"Doctor+Adventures+xXx+Madison+Scott+-+ERection%40Mastiotrrents","amp;tr":["udp%3A%2F%2Ftracker.openbittorrent.com%3A80","udp%3A%2F%2Fopen.demonii.com%3A1337","udp%3A%2F%2Ftracker.coppersurfer.tk%3A6969","udp%3A%2F%2Fexodus.desync.com%3A6969"],"infoHash":"8de2e10853e1e5dfea793231e8fda4b1a520a6e7","infoHashBuffer":{"type":"Buffer","data":[141,226,225,8,83,225,229,223,234,121,50,49,232,253,164,177,165,32,166,231]},"announce":[],"urlList":[]}}